<svg width="70" height="70" viewBox="0 0 70 70" fill="none" xmlns="http://www.w3.org/2000/svg">
<path fill-rule="evenodd" clip-rule="evenodd" d="M21.0003 11.667H49.0003C51.4757 11.667 53.8496 12.6503 55.6 14.4007C57.3503 16.151 58.3337 18.525 58.3337 21.0003V38.5003C58.3337 38.8097 58.2107 39.1065 57.992 39.3253C57.7732 39.5441 57.4764 39.667 57.167 39.667H51.3337C48.2395 39.667 45.272 40.8962 43.0841 43.0841C40.8962 45.272 39.667 48.2395 39.667 51.3337V57.167C39.667 57.4764 39.5441 57.7732 39.3253 57.992C39.1065 58.2107 38.8097 58.3337 38.5003 58.3337H21.0003C18.525 58.3337 16.151 57.3503 14.4007 55.6C12.6503 53.8496 11.667 51.4757 11.667 49.0003V21.0003C11.667 18.525 12.6503 16.151 14.4007 14.4007C16.151 12.6503 18.525 11.667 21.0003 11.667ZM22.167 30.3337C23.0952 30.3337 23.9855 29.9649 24.6419 29.3085C25.2982 28.6522 25.667 27.7619 25.667 26.8337C25.667 25.9054 25.2982 25.0152 24.6419 24.3588C23.9855 23.7024 23.0952 23.3337 22.167 23.3337C21.2387 23.3337 20.3485 23.7024 19.6921 24.3588C19.0357 25.0152 18.667 25.9054 18.667 26.8337C18.667 27.7619 19.0357 28.6522 19.6921 29.3085C20.3485 29.9649 21.2387 30.3337 22.167 30.3337ZM51.3337 26.8337C51.3337 27.7619 50.9649 28.6522 50.3085 29.3085C49.6522 29.9649 48.7619 30.3337 47.8337 30.3337C46.9054 30.3337 46.0152 29.9649 45.3588 29.3085C44.7024 28.6522 44.3337 27.7619 44.3337 26.8337C44.3337 25.9054 44.7024 25.0152 45.3588 24.3588C46.0152 23.7024 46.9054 23.3337 47.8337 23.3337C48.7619 23.3337 49.6522 23.7024 50.3085 24.3588C50.9649 25.0152 51.3337 25.9054 51.3337 26.8337ZM28.2103 33.6937C27.8638 33.18 27.3274 32.8251 26.7191 32.7069C26.1109 32.5888 25.4806 32.7171 24.967 33.0637C24.4534 33.4102 24.0984 33.9466 23.9803 34.5548C23.8621 35.1631 23.9904 35.7934 24.337 36.307C25.51 38.0588 27.0966 39.4946 28.9564 40.4875C30.8163 41.4803 32.8921 41.9998 35.0003 41.9998C37.1086 41.9998 39.1844 41.4803 41.0442 40.4875C42.904 39.4946 44.4906 38.0588 45.6637 36.307C45.8353 36.0527 45.9551 35.767 46.0163 35.4664C46.0775 35.1658 46.0789 34.856 46.0204 34.5548C45.9619 34.2537 45.8446 33.967 45.6753 33.7111C45.506 33.4553 45.288 33.2353 45.0337 33.0637C44.7793 32.8921 44.4937 32.7722 44.1931 32.711C43.8924 32.6498 43.5827 32.6484 43.2815 32.7069C42.9803 32.7654 42.6936 32.8827 42.4378 33.052C42.1819 33.2213 41.9619 33.4393 41.7903 33.6937C41.0442 34.8102 40.0342 35.7255 38.8498 36.3585C37.6654 36.9915 36.3432 37.3227 35.0003 37.3227C33.6574 37.3227 32.3352 36.9915 31.1509 36.3585C29.9665 35.7255 28.9565 34.8102 28.2103 33.6937Z" fill="white" fill-opacity="0.6"/>
<path d="M57.5396 44.3335C57.6096 44.3335 57.6563 44.4035 57.6329 44.4735C57.2926 45.1828 56.835 45.8296 56.2796 46.3868L46.3863 56.2802C45.8291 56.8356 45.1822 57.2931 44.4729 57.6335C44.4578 57.6425 44.4405 57.647 44.4229 57.6465C44.4053 57.646 44.3882 57.6406 44.3736 57.6309C44.359 57.6211 44.3474 57.6074 44.3402 57.5914C44.333 57.5753 44.3305 57.5576 44.3329 57.5402V51.3335C44.3329 49.477 45.0704 47.6965 46.3832 46.3837C47.696 45.071 49.4764 44.3335 51.3329 44.3335H57.5396Z" fill="white" fill-opacity="0.6"/>
</svg>
