<svg width="70" height="70" viewBox="0 0 70 70" fill="none" xmlns="http://www.w3.org/2000/svg">
<path fill-rule="evenodd" clip-rule="evenodd" d="M34.9997 60.6668C41.8069 60.6668 48.3353 57.9627 53.1488 53.1492C57.9622 48.3358 60.6663 41.8074 60.6663 35.0002C60.6663 28.1929 57.9622 21.6645 53.1488 16.8511C48.3353 12.0377 41.8069 9.3335 34.9997 9.3335C28.1925 9.3335 21.664 12.0377 16.8506 16.8511C12.0372 21.6645 9.33301 28.1929 9.33301 35.0002C9.33301 41.8074 12.0372 48.3358 16.8506 53.1492C21.664 57.9627 28.1925 60.6668 34.9997 60.6668ZM34.9997 21.0002C35.6185 21.0002 36.212 21.246 36.6496 21.6836C37.0872 22.1212 37.333 22.7147 37.333 23.3335V32.6668H46.6663C47.2852 32.6668 47.8787 32.9127 48.3163 33.3502C48.7538 33.7878 48.9997 34.3813 48.9997 35.0002C48.9997 35.619 48.7538 36.2125 48.3163 36.6501C47.8787 37.0877 47.2852 37.3335 46.6663 37.3335H37.333V46.6668C37.333 47.2857 37.0872 47.8792 36.6496 48.3167C36.212 48.7543 35.6185 49.0002 34.9997 49.0002C34.3808 49.0002 33.7873 48.7543 33.3498 48.3167C32.9122 47.8792 32.6663 47.2857 32.6663 46.6668V37.3335H23.333C22.7142 37.3335 22.1207 37.0877 21.6831 36.6501C21.2455 36.2125 20.9997 35.619 20.9997 35.0002C20.9997 34.3813 21.2455 33.7878 21.6831 33.3502C22.1207 32.9127 22.7142 32.6668 23.333 32.6668H32.6663V23.3335C32.6663 22.7147 32.9122 22.1212 33.3498 21.6836C33.7873 21.246 34.3808 21.0002 34.9997 21.0002Z" fill="white" fill-opacity="0.6"/>
</svg>
