<svg width="52" height="48" viewBox="0 0 52 48" fill="none" xmlns="http://www.w3.org/2000/svg">
<path d="M14.1525 5.01592C10.0006 7.76881 6.86021 11.801 5.20779 16.5005C3.55537 21.2001 3.48118 26.3104 4.99646 31.0559C5.41647 32.4419 5.37446 33.9119 4.57646 35.0879L1.09046 40.6319C0.683655 41.266 0.454884 41.9978 0.428108 42.7507C0.401337 43.5035 0.577557 44.2497 0.938297 44.9111C1.29904 45.5725 1.83102 46.1246 2.4785 46.5097C3.12598 46.8948 3.86512 47.0987 4.61847 47.0999H27.7185C33.9422 47.1898 39.9478 44.809 44.4194 40.4791C48.891 36.1492 51.464 30.2233 51.5745 23.9999C51.464 17.7765 48.891 11.8506 44.4194 7.52074C39.9478 3.19084 33.9422 0.810016 27.7185 0.899917C22.6785 0.899917 17.9745 2.41192 14.1525 5.01592Z" fill="white"/>
</svg>
