<svg width="60" height="46" viewBox="0 0 60 46" fill="none" xmlns="http://www.w3.org/2000/svg">
<path d="M50.4093 4.35203C46.5461 2.57401 42.4677 1.31263 38.2784 0.600098C37.7051 1.63031 37.1864 2.69027 36.7245 3.77552C32.2621 3.09953 27.7241 3.09953 23.2616 3.77552C22.7994 2.69038 22.2807 1.63044 21.7077 0.600098C17.5157 1.31865 13.4347 2.58302 9.56757 4.36133C1.89038 15.7798 -0.19079 26.9147 0.849793 37.8916C5.34575 41.2309 10.378 43.7706 15.7278 45.4001C16.9324 43.7714 17.9984 42.0435 18.9143 40.2348C17.1746 39.5816 15.4955 38.7757 13.8964 37.8265C14.3173 37.5196 14.7289 37.2035 15.1266 36.8967C19.7796 39.0964 24.8581 40.2369 30 40.2369C35.1419 40.2369 40.2204 39.0964 44.8734 36.8967C45.2758 37.2267 45.6874 37.5429 46.1036 37.8265C44.5014 38.7773 42.8192 39.5847 41.0764 40.2395C41.9912 42.0473 43.0572 43.7737 44.2629 45.4001C49.6173 43.7771 54.6534 41.2387 59.1502 37.8962C60.3711 25.1666 57.0644 14.134 50.4093 4.35203ZM20.2324 31.1409C17.3326 31.1409 14.937 28.4955 14.937 25.241C14.937 21.9866 17.2494 19.3179 20.2231 19.3179C23.1969 19.3179 25.574 21.9866 25.5232 25.241C25.4723 28.4955 23.1876 31.1409 20.2324 31.1409ZM39.7676 31.1409C36.8632 31.1409 34.4768 28.4955 34.4768 25.241C34.4768 21.9866 36.7892 19.3179 39.7676 19.3179C42.746 19.3179 45.1046 21.9866 45.0538 25.241C45.0029 28.4955 42.7229 31.1409 39.7676 31.1409Z" fill="white"/>
</svg>
