<svg width="41" height="41" viewBox="0 0 41 41" fill="none" xmlns="http://www.w3.org/2000/svg">
<path fill-rule="evenodd" clip-rule="evenodd" d="M18.38 3.04781C18.4223 2.78485 18.4123 2.51613 18.3508 2.257C18.2892 1.99788 18.1772 1.75341 18.0212 1.53757C17.8651 1.32172 17.6681 1.13873 17.4413 0.999028C17.2146 0.859329 16.9625 0.765663 16.6995 0.723377C16.4366 0.681091 16.1679 0.691015 15.9087 0.75258C15.6496 0.814145 15.4051 0.926146 15.1893 1.08219C14.9734 1.23823 14.7904 1.43526 14.6507 1.66203C14.5111 1.88879 14.4174 2.14085 14.3751 2.40381L12.6645 12.7883H4.3126C3.77885 12.7883 3.26696 13.0003 2.88955 13.3778C2.51213 13.7552 2.3001 14.2671 2.3001 14.8008C2.3001 15.3346 2.51213 15.8465 2.88955 16.2239C3.26696 16.6013 3.77885 16.8133 4.3126 16.8133H12.0003L10.652 24.8633H2.3001C1.76635 24.8633 1.25446 25.0753 0.877045 25.4528C0.499628 25.8302 0.287598 26.3421 0.287598 26.8758C0.287598 27.4096 0.499628 27.9214 0.877045 28.2989C1.25446 28.6763 1.76635 28.8883 2.3001 28.8883H9.98785L8.37785 38.6288C8.32866 39.1377 8.47497 39.6462 8.78708 40.0511C9.0992 40.456 9.55371 40.727 10.0583 40.8089C10.563 40.8909 11.0799 40.7777 11.5041 40.4924C11.9283 40.2071 12.2281 39.7711 12.3425 39.2728L14.0732 28.8883H24.0753L22.4653 38.6288C22.4162 39.1377 22.5625 39.6462 22.8746 40.0511C23.1867 40.456 23.6412 40.727 24.1458 40.8089C24.6505 40.8909 25.1674 40.7777 25.5916 40.4924C26.0158 40.2071 26.3156 39.7711 26.43 39.2728L28.1607 28.8883H36.5126C37.0463 28.8883 37.5582 28.6763 37.9357 28.2989C38.3131 27.9214 38.5251 27.4096 38.5251 26.8758C38.5251 26.3421 38.3131 25.8302 37.9357 25.4528C37.5582 25.0753 37.0463 24.8633 36.5126 24.8633H28.8248L30.1732 16.8133H38.5251C39.0588 16.8133 39.5707 16.6013 39.9482 16.2239C40.3256 15.8465 40.5376 15.3346 40.5376 14.8008C40.5376 14.2671 40.3256 13.7552 39.9482 13.3778C39.5707 13.0003 39.0588 12.7883 38.5251 12.7883H30.8373L32.4473 3.04781C32.5089 2.77956 32.5149 2.50151 32.4647 2.23088C32.4146 1.96025 32.3095 1.70277 32.1559 1.47438C32.0023 1.24598 31.8035 1.05152 31.5717 0.90302C31.34 0.754517 31.0802 0.655128 30.8086 0.610997C30.5369 0.566867 30.259 0.578934 29.9922 0.646451C29.7254 0.713968 29.4752 0.835501 29.2572 1.00354C29.0393 1.17157 28.858 1.38253 28.7248 1.62338C28.5916 1.86424 28.5092 2.12985 28.4827 2.40381L26.752 12.7883H16.7498L18.3598 3.04781H18.38ZM24.7395 24.8633L26.0878 16.8133H16.0857L14.7373 24.8633H24.7395Z" fill="white"/>
</svg>
