<svg width="48" height="48" viewBox="0 0 48 48" fill="none" xmlns="http://www.w3.org/2000/svg">
<path fill-rule="evenodd" clip-rule="evenodd" d="M7.6665 0.666504C5.80999 0.666504 4.02951 1.404 2.71676 2.71676C1.404 4.02951 0.666504 5.80999 0.666504 7.6665V40.3332C0.666504 42.1897 1.404 43.9702 2.71676 45.2829C4.02951 46.5957 5.80999 47.3332 7.6665 47.3332H40.3332C42.1897 47.3332 43.9702 46.5957 45.2829 45.2829C46.5957 43.9702 47.3332 42.1897 47.3332 40.3332V7.6665C47.3332 5.80999 46.5957 4.02951 45.2829 2.71676C43.9702 1.404 42.1897 0.666504 40.3332 0.666504H7.6665ZM5.33317 8.83317C5.33317 6.8965 6.8965 5.33317 8.83317 5.33317H39.1665C41.1032 5.33317 42.6665 6.8965 42.6665 8.83317V22.8332C42.6665 24.7698 41.1032 26.3332 39.1665 26.3332H32.9832C31.8165 26.3332 30.9998 27.4998 30.9998 28.6665C30.9998 30.523 30.2623 32.3035 28.9496 33.6163C27.6368 34.929 25.8564 35.6665 23.9998 35.6665C22.1433 35.6665 20.3628 34.929 19.0501 33.6163C17.7373 32.3035 16.9998 30.523 16.9998 28.6665C16.9998 27.4998 16.1832 26.3332 15.0165 26.3332H8.83317C7.90491 26.3332 7.01467 25.9644 6.3583 25.308C5.70192 24.6517 5.33317 23.7614 5.33317 22.8332V8.83317Z" fill="#B5BFE7"/>
</svg>
