<svg width="61" height="61" viewBox="0 0 61 61" fill="none" xmlns="http://www.w3.org/2000/svg">
<path d="M35.5938 22.138C36.6732 22.1393 37.7332 21.8512 38.6635 21.3037C39.5938 20.7562 40.3602 19.9694 40.8831 19.025C41.406 18.0807 41.6661 17.0134 41.6364 15.9344C41.6067 14.8554 41.2883 13.8041 40.7143 12.8899C40.1403 11.9758 39.3317 11.2322 38.3727 10.7367C37.4138 10.2412 36.3395 10.0119 35.2618 10.0725C34.1841 10.1332 33.1423 10.4817 32.245 11.0818C31.3478 11.6818 30.6278 12.5114 30.16 13.4842C29.7575 14.2892 30.2808 15.215 31.0455 15.7382C33.231 17.1673 34.7753 19.39 35.3523 21.9367C35.3724 22.0575 35.473 22.138 35.5938 22.138ZM43.523 40.7939C43.8249 41.6592 44.6098 42.263 45.5355 42.263H47.6688C49.3391 42.263 50.6875 40.9146 50.6875 39.2442C50.686 35.5908 49.3595 32.0619 46.9539 29.3121C44.5483 26.5624 41.2271 24.7785 37.6063 24.2914C36.4994 24.1304 35.6139 25.0561 35.3925 26.1429C35.2717 26.7466 35.0906 27.3504 34.8693 27.8937C34.4064 29.061 34.7686 30.51 35.8151 31.1741C39.373 33.4452 42.0823 36.8265 43.523 40.7939ZM31.5688 24.1505C31.5688 24.9433 31.4126 25.7284 31.1092 26.4609C30.8058 27.1934 30.361 27.859 29.8004 28.4196C29.2398 28.9803 28.5742 29.425 27.8417 29.7284C27.1092 30.0318 26.3241 30.188 25.5312 30.188C24.7384 30.188 23.9533 30.0318 23.2208 29.7284C22.4883 29.425 21.8227 28.9803 21.2621 28.4196C20.7015 27.859 20.2567 27.1934 19.9533 26.4609C19.6499 25.7284 19.4938 24.9433 19.4938 24.1505C19.4938 22.5492 20.1298 21.0136 21.2621 19.8813C22.3943 18.7491 23.93 18.113 25.5312 18.113C27.1325 18.113 28.6682 18.7491 29.8004 19.8813C30.9327 21.0136 31.5688 22.5492 31.5688 24.1505ZM10.4375 47.2942C10.4375 43.2911 12.0277 39.452 14.8584 36.6213C17.689 33.7907 21.5281 32.2005 25.5312 32.2005C29.5344 32.2005 33.3735 33.7907 36.2041 36.6213C39.0348 39.452 40.625 43.2911 40.625 47.2942C40.625 48.9646 39.2766 50.313 37.6063 50.313C37.5121 50.3149 37.4202 50.2837 37.3467 50.2249C37.2732 50.166 37.2226 50.0833 37.2038 49.991C36.8013 48.059 36.0767 46.2276 35.4328 44.8792C35.2315 44.4164 34.5875 44.5774 34.5875 45.0805V49.3067C34.5875 49.5736 34.4815 49.8296 34.2928 50.0183C34.1041 50.207 33.8481 50.313 33.5813 50.313H17.4813C17.2144 50.313 16.9584 50.207 16.7697 50.0183C16.581 49.8296 16.475 49.5736 16.475 49.3067V45.0805C16.475 44.5774 15.8511 44.4164 15.6297 44.8792C14.9858 46.2276 14.2814 48.059 13.8588 49.991C13.8399 50.0833 13.7893 50.166 13.7158 50.2249C13.6423 50.2837 13.5504 50.3149 13.4563 50.313C12.6556 50.313 11.8878 49.9949 11.3217 49.4288C10.7555 48.8627 10.4375 48.0949 10.4375 47.2942Z" fill="white" fill-opacity="0.6"/>
</svg>
