<svg width="61" height="61" viewBox="0 0 61 61" fill="none" xmlns="http://www.w3.org/2000/svg">
<path d="M9.02912 48.904C8.79845 49.077 8.60765 49.2975 8.46964 49.5507C8.33163 49.8039 8.24962 50.0837 8.22918 50.3713C8.20874 50.6589 8.25035 50.9476 8.35117 51.2177C8.45199 51.4878 8.60969 51.7332 8.81357 51.937C9.01745 52.1409 9.26277 52.2986 9.5329 52.3994C9.80303 52.5003 10.0917 52.5419 10.3793 52.5214C10.6669 52.501 10.9468 52.419 11.1999 52.281C11.4531 52.143 11.6736 51.9522 11.8466 51.7215L52.0966 11.4715C52.3873 11.0839 52.5284 10.6045 52.4941 10.1213C52.4597 9.6381 52.2522 9.18349 51.9097 8.84093C51.5671 8.49838 51.1125 8.29089 50.6293 8.25655C50.1461 8.22221 49.6667 8.36332 49.2791 8.65399L9.02912 48.904ZM12.712 38.4994C12.9334 39.0427 13.6377 39.0629 14.0402 38.6604L38.0695 14.6311C38.1749 14.5324 38.2562 14.4108 38.3073 14.2757C38.3584 14.1407 38.3779 13.9957 38.3643 13.8519C38.3507 13.7082 38.3044 13.5694 38.2288 13.4464C38.1533 13.3233 38.0506 13.2191 37.9286 13.1419C37.0718 12.6164 36.1609 12.1846 35.2117 11.8539C35.024 11.7819 34.8564 11.6657 34.7232 11.515C34.5901 11.3643 34.4953 11.1837 34.447 10.9885C34.2153 10.1358 33.7094 9.3831 33.0075 8.84645C32.3055 8.3098 31.4465 8.01904 30.5629 8.01904C29.6793 8.01904 28.8202 8.3098 28.1183 8.84645C27.4163 9.3831 26.9105 10.1358 26.6787 10.9885C26.6304 11.1837 26.5357 11.3643 26.4025 11.515C26.2694 11.6657 26.1018 11.7819 25.914 11.8539C23.1553 12.8183 20.7647 14.6168 19.0736 17.0002C17.3825 19.3837 16.4745 22.234 16.4754 25.1565V29.3626C16.4722 29.6085 16.3792 29.8448 16.2137 30.0267L14 32.482C13.0009 33.5923 12.4488 35.0335 12.4504 36.5271V37.0906C12.4504 37.5736 12.5309 38.0566 12.712 38.4994ZM43.9259 24.8747C44.1875 24.6131 44.6504 24.7741 44.6504 25.1565V29.3626C44.6504 29.6041 44.751 29.8456 44.912 30.0267L47.1257 32.482C48.1249 33.5923 48.677 35.0335 48.6754 36.5271V37.0906C48.6754 38.439 47.9911 39.6867 46.7635 40.2301C44.1271 41.4376 38.7135 43.269 30.5629 43.269C29.6371 43.269 28.7516 43.2489 27.8862 43.2086C27.6974 43.1977 27.516 43.1317 27.3644 43.0186C27.2128 42.9055 27.0977 42.7504 27.0334 42.5726C26.9691 42.3947 26.9584 42.2019 27.0027 42.018C27.047 41.8342 27.1443 41.6673 27.2825 41.5382L43.9259 24.8747ZM24.8876 45.9657C24.8421 45.96 24.7958 45.9641 24.752 45.9777C24.7082 45.9912 24.6677 46.0141 24.6334 46.0445C24.5991 46.075 24.5717 46.1125 24.5531 46.1545C24.5345 46.1964 24.525 46.2418 24.5254 46.2877C24.5254 47.889 25.1615 49.4246 26.2937 50.5569C27.426 51.6891 28.9616 52.3252 30.5629 52.3252C32.1641 52.3252 33.6998 51.6891 34.832 50.5569C35.9643 49.4246 36.6004 47.889 36.6004 46.2877C36.6004 46.0865 36.4192 45.9456 36.2381 45.9657C32.4669 46.3967 28.6589 46.3967 24.8876 45.9657Z" fill="white" fill-opacity="0.6"/>
</svg>
