<svg width="42" height="9" viewBox="0 0 42 9" fill="none" xmlns="http://www.w3.org/2000/svg">
<path fill-rule="evenodd" clip-rule="evenodd" d="M4.98716 8.93721C6.05465 8.93721 7.07843 8.51315 7.83326 7.75831C8.5881 7.00348 9.01216 5.9797 9.01216 4.91221C9.01216 3.84471 8.5881 2.82094 7.83326 2.0661C7.07843 1.31127 6.05465 0.887207 4.98716 0.887207C3.91966 0.887207 2.89589 1.31127 2.14105 2.0661C1.38622 2.82094 0.962158 3.84471 0.962158 4.91221C0.962158 5.9797 1.38622 7.00348 2.14105 7.75831C2.89589 8.51315 3.91966 8.93721 4.98716 8.93721ZM25.1122 4.91221C25.1122 5.9797 24.6881 7.00348 23.9333 7.75831C23.1784 8.51315 22.1547 8.93721 21.0872 8.93721C20.0197 8.93721 18.9959 8.51315 18.2411 7.75831C17.4862 7.00348 17.0622 5.9797 17.0622 4.91221C17.0622 3.84471 17.4862 2.82094 18.2411 2.0661C18.9959 1.31127 20.0197 0.887207 21.0872 0.887207C22.1547 0.887207 23.1784 1.31127 23.9333 2.0661C24.6881 2.82094 25.1122 3.84471 25.1122 4.91221ZM41.2122 4.91221C41.2122 5.9797 40.7881 7.00348 40.0333 7.75831C39.2784 8.51315 38.2547 8.93721 37.1872 8.93721C36.1197 8.93721 35.0959 8.51315 34.3411 7.75831C33.5862 7.00348 33.1622 5.9797 33.1622 4.91221C33.1622 3.84471 33.5862 2.82094 34.3411 2.0661C35.0959 1.31127 36.1197 0.887207 37.1872 0.887207C38.2547 0.887207 39.2784 1.31127 40.0333 2.0661C40.7881 2.82094 41.2122 3.84471 41.2122 4.91221Z" fill="white" fill-opacity="0.6"/>
</svg>
