<svg width="62" height="61" viewBox="0 0 62 61" fill="none" xmlns="http://www.w3.org/2000/svg">
<g clip-path="url(#clip0_1_7238)">
<path d="M45.9147 28.9396C47.0468 30.0702 48.5813 30.7053 50.1812 30.7053C51.7812 30.7053 53.3157 30.0702 54.4477 28.9396L54.5081 28.8792C54.6925 28.6911 54.7957 28.4383 54.7957 28.1749C54.7957 27.9115 54.6925 27.6586 54.5081 27.4705L33.7794 6.74175C33.5913 6.55737 33.3384 6.4541 33.075 6.4541C32.8116 6.4541 32.5587 6.55737 32.3706 6.74175L32.3102 6.80212C31.1796 7.93415 30.5445 9.46868 30.5445 11.0686C30.5445 12.6686 31.1796 14.2031 32.3102 15.3351L33.075 16.0999L27.1985 21.9764L19.8529 21.2921C19.2633 21.2379 18.6691 21.3144 18.1125 21.5162C17.5559 21.7179 17.0507 22.04 16.6329 22.4594L15.3851 23.7272C15.1965 23.9143 15.0468 24.1369 14.9446 24.3822C14.8424 24.6274 14.7898 24.8904 14.7898 25.1561C14.7898 25.4218 14.8424 25.6848 14.9446 25.9301C15.0468 26.1753 15.1965 26.3979 15.3851 26.585L34.6649 45.8647C34.8519 46.0534 35.0745 46.2031 35.3198 46.3053C35.565 46.4074 35.8281 46.46 36.0937 46.46C36.3594 46.46 36.6224 46.4074 36.8677 46.3053C37.1129 46.2031 37.3355 46.0534 37.5226 45.8647L38.7905 44.5969C39.2099 44.179 39.5319 43.6738 39.7337 43.1172C39.9355 42.5606 40.0119 41.9664 39.9577 41.3769L39.2735 34.0514L45.15 28.1749L45.9147 28.9396ZM25.1659 40.3907C25.2709 40.4965 25.3511 40.6244 25.4007 40.765C25.4503 40.9056 25.4681 41.0554 25.4527 41.2037C25.4373 41.352 25.3891 41.495 25.3116 41.6224C25.2342 41.7498 25.1294 41.8584 25.0049 41.9404L14.6405 48.8432C14.4476 48.9724 14.2161 49.031 13.985 49.009C13.7539 48.987 13.5376 48.8858 13.3726 48.7225L12.5274 47.8772C12.3641 47.7123 12.2629 47.4959 12.2409 47.2648C12.2189 47.0338 12.2774 46.8022 12.4066 46.6094L19.3095 36.2249C19.3914 36.1003 19.5 35.9955 19.6274 35.9181C19.7548 35.8406 19.8978 35.7925 20.0461 35.7771C20.1944 35.7617 20.3443 35.7794 20.4849 35.829C20.6255 35.8786 20.7533 35.9588 20.8591 36.0639L25.1659 40.3706V40.3907Z" fill="white" fill-opacity="0.6"/>
</g>
<defs>
<clipPath id="clip0_1_7238">
<rect width="48.3" height="48.3" fill="white" transform="translate(6.9126 6.0376)"/>
</clipPath>
</defs>
</svg>
