<svg width="50" height="50" viewBox="0 0 50 50" fill="none" xmlns="http://www.w3.org/2000/svg">
<path fill-rule="evenodd" clip-rule="evenodd" d="M34.4466 37.7366C30.2538 41.0884 24.9367 42.7074 19.5874 42.261C14.2381 41.8146 9.26285 39.3367 5.6836 35.3364C2.10436 31.336 0.192885 26.1168 0.341835 20.751C0.490785 15.3852 2.68885 10.2802 6.48451 6.48451C10.2802 2.68885 15.3852 0.490785 20.751 0.341835C26.1168 0.192885 31.336 2.10436 35.3364 5.6836C39.3367 9.26285 41.8146 14.2381 42.261 19.5874C42.7074 24.9367 41.0884 30.2538 37.7366 34.4466L48.6566 45.3433C48.8741 45.5608 49.0467 45.8191 49.1645 46.1033C49.2822 46.3876 49.3428 46.6923 49.3428 46.9999C49.3428 47.3076 49.2822 47.6123 49.1645 47.8965C49.0467 48.1808 48.8741 48.439 48.6566 48.6566C48.439 48.8741 48.1808 49.0467 47.8965 49.1645C47.6123 49.2822 47.3076 49.3428 46.9999 49.3428C46.6923 49.3428 46.3876 49.2822 46.1033 49.1645C45.8191 49.0467 45.5608 48.8741 45.3433 48.6566L34.4466 37.7366ZM37.6666 21.3333C37.6666 23.4782 37.2441 25.6021 36.4233 27.5838C35.6025 29.5654 34.3994 31.366 32.8827 32.8827C31.366 34.3994 29.5654 35.6025 27.5838 36.4233C25.6021 37.2441 23.4782 37.6666 21.3333 37.6666C19.1883 37.6666 17.0644 37.2441 15.0828 36.4233C13.1011 35.6025 11.3005 34.3994 9.78385 32.8827C8.26716 31.366 7.06405 29.5654 6.24323 27.5838C5.4224 25.6021 4.99993 23.4782 4.99993 21.3333C4.99993 17.0014 6.72076 12.8469 9.78385 9.78385C12.8469 6.72076 17.0014 4.99993 21.3333 4.99993C25.6651 4.99993 29.8196 6.72076 32.8827 9.78385C35.9458 12.8469 37.6666 17.0014 37.6666 21.3333Z" fill="#B5BFE7"/>
</svg>
