<svg width="41" height="41" viewBox="0 0 41 41" fill="none" xmlns="http://www.w3.org/2000/svg">
<path d="M20.4126 2.17612C20.4126 1.64237 20.2006 1.13048 19.8232 0.753068C19.4457 0.375651 18.9338 0.16362 18.4001 0.16362H18.2793C18 0.16173 17.7233 0.218013 17.4669 0.328887C17.2106 0.439761 16.98 0.602797 16.7901 0.80762L8.1766 10.2261H2.3001C1.76635 10.2261 1.25446 10.4382 0.877045 10.8156C0.499628 11.193 0.287598 11.7049 0.287598 12.2386V28.3386C0.287598 28.8724 0.499628 29.3843 0.877045 29.7617C1.25446 30.1391 1.76635 30.3511 2.3001 30.3511H8.1766L16.7901 39.7696C16.98 39.9744 17.2106 40.1375 17.4669 40.2484C17.7233 40.3592 18 40.4155 18.2793 40.4136H18.4001C18.9338 40.4136 19.4457 40.2016 19.8232 39.8242C20.2006 39.4468 20.4126 38.9349 20.4126 38.4011V2.17612ZM26.6513 37.898C25.4841 38.1797 24.4376 37.2339 24.4376 36.0465V35.9861C24.4376 34.9799 25.1822 34.1346 26.1482 33.873C29.124 33.0556 31.7491 31.2837 33.6201 28.8295C35.4911 26.3753 36.5044 23.3747 36.5044 20.2886C36.5044 17.2026 35.4911 14.2019 33.6201 11.7477C31.7491 9.29355 29.124 7.52163 26.1482 6.70425C25.6703 6.58928 25.2437 6.31991 24.9344 5.93788C24.6252 5.55585 24.4505 5.08247 24.4376 4.59112V4.53075C24.4376 3.32325 25.4841 2.3975 26.6513 2.67925C30.6048 3.63104 34.123 5.88553 36.6395 9.07978C39.156 12.274 40.5244 16.2222 40.5244 20.2886C40.5244 24.3551 39.156 28.3032 36.6395 31.4975C34.123 34.6917 30.6048 36.9462 26.6513 37.898Z" fill="white" fill-opacity="0.6"/>
</svg>
